<mxfile host="app.diagrams.net" agent="Mozilla/5.0 (Macintosh; Intel Mac OS X 10_15_7) AppleWebKit/537.36 (KHTML, like Gecko) Chrome/129.0.0.0 Safari/537.36" version="24.7.17">
  <diagram name="Page-1" id="MFcTYn4dN0HF2_t9Gs-d">
    <mxGraphModel dx="1194" dy="789" grid="1" gridSize="10" guides="1" tooltips="1" connect="1" arrows="1" fold="1" page="1" pageScale="1" pageWidth="850" pageHeight="1100" math="0" shadow="0">
      <root>
        <mxCell id="0" />
        <mxCell id="1" parent="0" />
        <mxCell id="rX3JwKmnMdNHZesdWCCT-10" style="edgeStyle=orthogonalEdgeStyle;rounded=0;orthogonalLoop=1;jettySize=auto;html=1;entryX=0;entryY=0.5;entryDx=0;entryDy=0;" parent="1" source="rX3JwKmnMdNHZesdWCCT-1" target="rX3JwKmnMdNHZesdWCCT-7" edge="1">
          <mxGeometry relative="1" as="geometry" />
        </mxCell>
        <mxCell id="rX3JwKmnMdNHZesdWCCT-1" value="Exit Door Open" style="rounded=1;whiteSpace=wrap;html=1;" parent="1" vertex="1">
          <mxGeometry x="580" y="260" width="120" height="60" as="geometry" />
        </mxCell>
        <mxCell id="rX3JwKmnMdNHZesdWCCT-9" style="edgeStyle=orthogonalEdgeStyle;rounded=0;orthogonalLoop=1;jettySize=auto;html=1;entryX=0;entryY=0.5;entryDx=0;entryDy=0;" parent="1" source="rX3JwKmnMdNHZesdWCCT-2" target="rX3JwKmnMdNHZesdWCCT-1" edge="1">
          <mxGeometry relative="1" as="geometry" />
        </mxCell>
        <mxCell id="rX3JwKmnMdNHZesdWCCT-2" value="Change Values/Check Logic" style="rounded=1;whiteSpace=wrap;html=1;" parent="1" vertex="1">
          <mxGeometry x="360" y="260" width="120" height="60" as="geometry" />
        </mxCell>
        <mxCell id="rX3JwKmnMdNHZesdWCCT-8" style="edgeStyle=orthogonalEdgeStyle;rounded=0;orthogonalLoop=1;jettySize=auto;html=1;" parent="1" source="rX3JwKmnMdNHZesdWCCT-3" target="rX3JwKmnMdNHZesdWCCT-2" edge="1">
          <mxGeometry relative="1" as="geometry" />
        </mxCell>
        <mxCell id="rX3JwKmnMdNHZesdWCCT-3" value="Exit Door Closed" style="rounded=1;whiteSpace=wrap;html=1;" parent="1" vertex="1">
          <mxGeometry x="140" y="260" width="120" height="60" as="geometry" />
        </mxCell>
        <mxCell id="rX3JwKmnMdNHZesdWCCT-4" value="" style="ellipse;html=1;shape=startState;fillColor=#000000;strokeColor=#ff0000;" parent="1" vertex="1">
          <mxGeometry x="20" y="275" width="30" height="30" as="geometry" />
        </mxCell>
        <mxCell id="rX3JwKmnMdNHZesdWCCT-5" value="" style="edgeStyle=orthogonalEdgeStyle;html=1;verticalAlign=bottom;endArrow=open;endSize=8;strokeColor=#ff0000;rounded=0;entryX=0;entryY=0.5;entryDx=0;entryDy=0;" parent="1" source="rX3JwKmnMdNHZesdWCCT-4" target="rX3JwKmnMdNHZesdWCCT-3" edge="1">
          <mxGeometry relative="1" as="geometry">
            <mxPoint x="35" y="370" as="targetPoint" />
          </mxGeometry>
        </mxCell>
        <mxCell id="rX3JwKmnMdNHZesdWCCT-6" value="" style="ellipse;html=1;shape=endState;fillColor=#000000;strokeColor=#ff0000;" parent="1" vertex="1">
          <mxGeometry x="780" y="400" width="30" height="30" as="geometry" />
        </mxCell>
        <mxCell id="rX3JwKmnMdNHZesdWCCT-7" value="" style="ellipse;html=1;shape=endState;fillColor=#000000;strokeColor=#ff0000;" parent="1" vertex="1">
          <mxGeometry x="780" y="275" width="30" height="30" as="geometry" />
        </mxCell>
        <mxCell id="rX3JwKmnMdNHZesdWCCT-11" value="" style="curved=1;endArrow=classic;html=1;rounded=0;entryX=0.75;entryY=1;entryDx=0;entryDy=0;exitX=0.25;exitY=1;exitDx=0;exitDy=0;" parent="1" source="rX3JwKmnMdNHZesdWCCT-2" target="rX3JwKmnMdNHZesdWCCT-3" edge="1">
          <mxGeometry width="50" height="50" relative="1" as="geometry">
            <mxPoint x="230" y="410" as="sourcePoint" />
            <mxPoint x="280" y="360" as="targetPoint" />
            <Array as="points">
              <mxPoint x="360" y="360" />
              <mxPoint x="260" y="370" />
            </Array>
          </mxGeometry>
        </mxCell>
        <mxCell id="rX3JwKmnMdNHZesdWCCT-12" value="" style="curved=1;endArrow=classic;html=1;rounded=0;exitX=0.25;exitY=1;exitDx=0;exitDy=0;entryX=0;entryY=0.5;entryDx=0;entryDy=0;" parent="1" source="rX3JwKmnMdNHZesdWCCT-3" target="rX3JwKmnMdNHZesdWCCT-14" edge="1">
          <mxGeometry width="50" height="50" relative="1" as="geometry">
            <mxPoint x="400" y="430" as="sourcePoint" />
            <mxPoint x="330" y="470" as="targetPoint" />
            <Array as="points">
              <mxPoint x="130" y="480" />
            </Array>
          </mxGeometry>
        </mxCell>
        <mxCell id="rX3JwKmnMdNHZesdWCCT-13" value="" style="curved=1;endArrow=classic;html=1;rounded=0;entryX=0.75;entryY=1;entryDx=0;entryDy=0;exitX=0.25;exitY=1;exitDx=0;exitDy=0;" parent="1" edge="1">
          <mxGeometry width="50" height="50" relative="1" as="geometry">
            <mxPoint x="620" y="320" as="sourcePoint" />
            <mxPoint x="460" y="320" as="targetPoint" />
            <Array as="points">
              <mxPoint x="590" y="360" />
              <mxPoint x="490" y="370" />
            </Array>
          </mxGeometry>
        </mxCell>
        <mxCell id="rX3JwKmnMdNHZesdWCCT-14" value="Game Paused" style="rounded=1;whiteSpace=wrap;html=1;" parent="1" vertex="1">
          <mxGeometry x="360" y="440" width="120" height="60" as="geometry" />
        </mxCell>
        <mxCell id="rX3JwKmnMdNHZesdWCCT-15" value="" style="curved=1;endArrow=classic;html=1;rounded=0;exitX=0.5;exitY=1;exitDx=0;exitDy=0;entryX=1;entryY=0.25;entryDx=0;entryDy=0;" parent="1" source="rX3JwKmnMdNHZesdWCCT-1" target="rX3JwKmnMdNHZesdWCCT-14" edge="1">
          <mxGeometry width="50" height="50" relative="1" as="geometry">
            <mxPoint x="520" y="390" as="sourcePoint" />
            <mxPoint x="710" y="540" as="targetPoint" />
            <Array as="points">
              <mxPoint x="650" y="420" />
            </Array>
          </mxGeometry>
        </mxCell>
        <mxCell id="rX3JwKmnMdNHZesdWCCT-16" value="" style="curved=1;endArrow=classic;html=1;rounded=0;exitX=1;exitY=0.75;exitDx=0;exitDy=0;entryX=0;entryY=1;entryDx=0;entryDy=0;" parent="1" source="rX3JwKmnMdNHZesdWCCT-14" target="rX3JwKmnMdNHZesdWCCT-6" edge="1">
          <mxGeometry width="50" height="50" relative="1" as="geometry">
            <mxPoint x="530" y="460" as="sourcePoint" />
            <mxPoint x="720" y="610" as="targetPoint" />
            <Array as="points">
              <mxPoint x="710" y="470" />
            </Array>
          </mxGeometry>
        </mxCell>
        <mxCell id="rX3JwKmnMdNHZesdWCCT-18" value="Save and Exit" style="text;html=1;align=center;verticalAlign=middle;whiteSpace=wrap;rounded=0;" parent="1" vertex="1">
          <mxGeometry x="590" y="470" width="80" height="30" as="geometry" />
        </mxCell>
        <mxCell id="rX3JwKmnMdNHZesdWCCT-19" value="Press Pause" style="text;html=1;align=center;verticalAlign=middle;whiteSpace=wrap;rounded=0;" parent="1" vertex="1">
          <mxGeometry x="120" y="430" width="80" height="30" as="geometry" />
        </mxCell>
        <mxCell id="rX3JwKmnMdNHZesdWCCT-20" value="Press Pause" style="text;html=1;align=center;verticalAlign=middle;whiteSpace=wrap;rounded=0;" parent="1" vertex="1">
          <mxGeometry x="620" y="380" width="80" height="30" as="geometry" />
        </mxCell>
        <mxCell id="rX3JwKmnMdNHZesdWCCT-22" value="Find and Press Buttons" style="text;html=1;align=center;verticalAlign=middle;whiteSpace=wrap;rounded=0;" parent="1" vertex="1">
          <mxGeometry x="440" y="360" width="140" height="30" as="geometry" />
        </mxCell>
        <mxCell id="rX3JwKmnMdNHZesdWCCT-23" value="Find and Press Buttons" style="text;html=1;align=center;verticalAlign=middle;whiteSpace=wrap;rounded=0;" parent="1" vertex="1">
          <mxGeometry x="240" y="230" width="140" height="30" as="geometry" />
        </mxCell>
        <mxCell id="rX3JwKmnMdNHZesdWCCT-24" value="All Conditions Passed" style="text;html=1;align=center;verticalAlign=middle;whiteSpace=wrap;rounded=0;" parent="1" vertex="1">
          <mxGeometry x="460" y="230" width="140" height="30" as="geometry" />
        </mxCell>
        <mxCell id="rX3JwKmnMdNHZesdWCCT-25" value="Final Conditions Not Met" style="text;html=1;align=center;verticalAlign=middle;whiteSpace=wrap;rounded=0;" parent="1" vertex="1">
          <mxGeometry x="250" y="360" width="140" height="30" as="geometry" />
        </mxCell>
        <mxCell id="rX3JwKmnMdNHZesdWCCT-26" value="Enter Door/ Exit Level" style="text;html=1;align=center;verticalAlign=middle;whiteSpace=wrap;rounded=0;" parent="1" vertex="1">
          <mxGeometry x="700" y="230" width="80" height="30" as="geometry" />
        </mxCell>
        <mxCell id="rX3JwKmnMdNHZesdWCCT-27" value="Level Complete" style="text;html=1;align=center;verticalAlign=middle;whiteSpace=wrap;rounded=0;" parent="1" vertex="1">
          <mxGeometry x="810" y="275" width="100" height="30" as="geometry" />
        </mxCell>
        <mxCell id="rX3JwKmnMdNHZesdWCCT-28" value="Level Incomplete" style="text;html=1;align=center;verticalAlign=middle;whiteSpace=wrap;rounded=0;" parent="1" vertex="1">
          <mxGeometry x="810" y="400" width="100" height="30" as="geometry" />
        </mxCell>
        <mxCell id="rX3JwKmnMdNHZesdWCCT-29" value="Start Level" style="text;html=1;align=center;verticalAlign=middle;whiteSpace=wrap;rounded=0;" parent="1" vertex="1">
          <mxGeometry x="60" y="260" width="60" height="30" as="geometry" />
        </mxCell>
        <mxCell id="hAWMpXtkgYa8TV7C-aqK-1" value="" style="curved=1;endArrow=classic;html=1;rounded=0;exitX=0.683;exitY=-0.033;exitDx=0;exitDy=0;exitPerimeter=0;entryX=1;entryY=0;entryDx=0;entryDy=0;" edge="1" parent="1" source="rX3JwKmnMdNHZesdWCCT-1" target="rX3JwKmnMdNHZesdWCCT-4">
          <mxGeometry width="50" height="50" relative="1" as="geometry">
            <mxPoint x="320" y="170" as="sourcePoint" />
            <mxPoint x="370" y="120" as="targetPoint" />
            <Array as="points">
              <mxPoint x="550" y="150" />
              <mxPoint x="250" y="130" />
              <mxPoint x="70" y="180" />
            </Array>
          </mxGeometry>
        </mxCell>
        <mxCell id="hAWMpXtkgYa8TV7C-aqK-4" value="Player Dies" style="edgeLabel;html=1;align=center;verticalAlign=middle;resizable=0;points=[];" vertex="1" connectable="0" parent="hAWMpXtkgYa8TV7C-aqK-1">
          <mxGeometry x="0.0671" y="6" relative="1" as="geometry">
            <mxPoint as="offset" />
          </mxGeometry>
        </mxCell>
        <mxCell id="hAWMpXtkgYa8TV7C-aqK-2" value="" style="curved=1;endArrow=classic;html=1;rounded=0;entryX=1;entryY=0;entryDx=0;entryDy=0;" edge="1" parent="1" target="rX3JwKmnMdNHZesdWCCT-4">
          <mxGeometry width="50" height="50" relative="1" as="geometry">
            <mxPoint x="230" y="260" as="sourcePoint" />
            <mxPoint x="240" y="210" as="targetPoint" />
            <Array as="points">
              <mxPoint x="240" y="260" />
              <mxPoint x="220" y="230" />
              <mxPoint x="90" y="200" />
            </Array>
          </mxGeometry>
        </mxCell>
        <mxCell id="hAWMpXtkgYa8TV7C-aqK-3" value="Player Dies" style="edgeLabel;html=1;align=center;verticalAlign=middle;resizable=0;points=[];" vertex="1" connectable="0" parent="hAWMpXtkgYa8TV7C-aqK-2">
          <mxGeometry x="-0.0402" y="2" relative="1" as="geometry">
            <mxPoint as="offset" />
          </mxGeometry>
        </mxCell>
      </root>
    </mxGraphModel>
  </diagram>
</mxfile>
